<?xml version="1.0" encoding="UTF-8" standalone="no"?>
<!DOCTYPE svg PUBLIC "-//W3C//DTD SVG 1.1//EN"
 "http://www.w3.org/Graphics/SVG/1.1/DTD/svg11.dtd">
<!-- Generated by graphviz version 2.43.0 (0)
 -->
<!-- Title: authswitch&#45;db@public Pages: 1 -->
<svg width="758pt" height="893pt"
 viewBox="0.00 0.00 758.00 893.00" xmlns="http://www.w3.org/2000/svg" xmlns:xlink="http://www.w3.org/1999/xlink">
<g id="graph0" class="graph" transform="scale(1 1) rotate(0) translate(4 889)">
<title>authswitch&#45;db@public</title>
<polygon fill="#fafafa" stroke="transparent" points="-4,4 -4,-889 754,-889 754,4 -4,4"/>
<!-- usuario -->
<g id="node1" class="node">
<title>usuario</title>
<polygon fill="#ffffff" stroke="transparent" points="281,-885 0,-885 0,-729 281,-729 281,-885"/>
<polygon fill="#2e3b4e" stroke="transparent" points="8.5,-858 8.5,-881 273.5,-881 273.5,-858 8.5,-858"/>
<polygon fill="none" stroke="#6c757d" points="8.5,-858 8.5,-881 273.5,-881 273.5,-858 8.5,-858"/>
<text text-anchor="start" x="112" y="-866.4" font-family="Arial" font-size="12.00" fill="white">📋 usuario</text>
<polygon fill="#e9ecef" stroke="transparent" points="8.5,-838 8.5,-858 273.5,-858 273.5,-838 8.5,-838"/>
<polygon fill="none" stroke="#6c757d" points="8.5,-838 8.5,-858 273.5,-858 273.5,-838 8.5,-838"/>
<text text-anchor="start" x="13.5" y="-845.8" font-family="Arial" font-size="9.00" fill="#333333">Tabla que almacena información de los usuarios del sistema</text>
<polygon fill="#fff3cd" stroke="transparent" points="8.5,-817 8.5,-838 82.5,-838 82.5,-817 8.5,-817"/>
<polyline fill="none" stroke="#6c757d" points="82.5,-838 8.5,-838 8.5,-817 82.5,-817 "/>
<text text-anchor="start" x="13.5" y="-825" font-family="Arial" font-size="10.00" fill="#333333">id</text>
<polygon fill="#fff3cd" stroke="transparent" points="82.5,-817 82.5,-838 126.5,-838 126.5,-817 82.5,-817"/>
<polyline fill="none" stroke="#6c757d" points="82.5,-817 126.5,-817 "/>
<polyline fill="none" stroke="#6c757d" points="126.5,-838 82.5,-838 "/>
<text text-anchor="start" x="87.5" y="-825.3" font-family="Arial" font-size="9.00" fill="#333333">🔑❗⬆️</text>
<polygon fill="#fff3cd" stroke="transparent" points="126.5,-817 126.5,-838 181.5,-838 181.5,-817 126.5,-817"/>
<polygon fill="none" stroke="#6c757d" points="126.5,-817 126.5,-838 181.5,-838 181.5,-817 126.5,-817"/>
<text text-anchor="start" x="131.5" y="-825.3" font-family="Arial" font-size="9.00" fill="#333333">INT</text>
<polygon fill="#fff3cd" stroke="transparent" points="181.5,-817 181.5,-838 273.5,-838 273.5,-817 181.5,-817"/>
<polygon fill="none" stroke="#6c757d" points="181.5,-817 181.5,-838 273.5,-838 273.5,-817 181.5,-817"/>
<text text-anchor="start" x="186.5" y="-825.3" font-family="Arial" font-size="9.00" fill="#333333">&#45;&#45;&#45;</text>
<polygon fill="#ffffff" stroke="transparent" points="8.5,-796 8.5,-817 82.5,-817 82.5,-796 8.5,-796"/>
<polyline fill="none" stroke="#6c757d" points="82.5,-817 8.5,-817 8.5,-796 82.5,-796 "/>
<text text-anchor="start" x="13.5" y="-804" font-family="Arial" font-size="10.00" fill="#333333">name</text>
<polygon fill="#ffffff" stroke="transparent" points="82.5,-796 82.5,-817 126.5,-817 126.5,-796 82.5,-796"/>
<polyline fill="none" stroke="#6c757d" points="82.5,-796 126.5,-796 "/>
<polyline fill="none" stroke="#6c757d" points="126.5,-817 82.5,-817 "/>
<text text-anchor="start" x="98.5" y="-804.3" font-family="Arial" font-size="9.00" fill="#333333">⭐❗</text>
<polygon fill="#ffffff" stroke="transparent" points="126.5,-796 126.5,-817 181.5,-817 181.5,-796 126.5,-796"/>
<polygon fill="none" stroke="#6c757d" points="126.5,-796 126.5,-817 181.5,-817 181.5,-796 126.5,-796"/>
<text text-anchor="start" x="131.5" y="-804.3" font-family="Arial" font-size="9.00" fill="#333333">STR</text>
<polygon fill="#ffffff" stroke="transparent" points="181.5,-796 181.5,-817 273.5,-817 273.5,-796 181.5,-796"/>
<polygon fill="none" stroke="#6c757d" points="181.5,-796 181.5,-817 273.5,-817 273.5,-796 181.5,-796"/>
<text text-anchor="start" x="186.5" y="-804.3" font-family="Arial" font-size="9.00" fill="#333333">Nombre del usuario</text>
<polygon fill="#ffffff" stroke="transparent" points="8.5,-775 8.5,-796 82.5,-796 82.5,-775 8.5,-775"/>
<polyline fill="none" stroke="#6c757d" points="82.5,-796 8.5,-796 8.5,-775 82.5,-775 "/>
<text text-anchor="start" x="13.5" y="-783" font-family="Arial" font-size="10.00" fill="#333333">pwd</text>
<polygon fill="#ffffff" stroke="transparent" points="82.5,-775 82.5,-796 126.5,-796 126.5,-775 82.5,-775"/>
<polyline fill="none" stroke="#6c757d" points="82.5,-775 126.5,-775 "/>
<polyline fill="none" stroke="#6c757d" points="126.5,-796 82.5,-796 "/>
<text text-anchor="start" x="98.5" y="-783.3" font-family="Arial" font-size="9.00" fill="#333333">❗🔒</text>
<polygon fill="#ffffff" stroke="transparent" points="126.5,-775 126.5,-796 181.5,-796 181.5,-775 126.5,-775"/>
<polygon fill="none" stroke="#6c757d" points="126.5,-775 126.5,-796 181.5,-796 181.5,-775 126.5,-775"/>
<text text-anchor="start" x="131.5" y="-783.3" font-family="Arial" font-size="9.00" fill="#333333">STR</text>
<polygon fill="#ffffff" stroke="transparent" points="181.5,-775 181.5,-796 273.5,-796 273.5,-775 181.5,-775"/>
<polygon fill="none" stroke="#6c757d" points="181.5,-775 181.5,-796 273.5,-796 273.5,-775 181.5,-775"/>
<text text-anchor="start" x="186.5" y="-783.3" font-family="Arial" font-size="9.00" fill="#333333">&#45;&#45;&#45;</text>
<polygon fill="#ffffff" stroke="transparent" points="8.5,-754 8.5,-775 82.5,-775 82.5,-754 8.5,-754"/>
<polyline fill="none" stroke="#6c757d" points="82.5,-775 8.5,-775 8.5,-754 82.5,-754 "/>
<text text-anchor="start" x="13.5" y="-762" font-family="Arial" font-size="10.00" fill="#333333">email</text>
<polygon fill="#ffffff" stroke="transparent" points="82.5,-754 82.5,-775 126.5,-775 126.5,-754 82.5,-754"/>
<polyline fill="none" stroke="#6c757d" points="82.5,-754 126.5,-754 "/>
<polyline fill="none" stroke="#6c757d" points="126.5,-775 82.5,-775 "/>
<text text-anchor="start" x="118.5" y="-762.3" font-family="Arial" font-size="9.00" fill="#333333"> </text>
<polygon fill="#ffffff" stroke="transparent" points="126.5,-754 126.5,-775 181.5,-775 181.5,-754 126.5,-754"/>
<polygon fill="none" stroke="#6c757d" points="126.5,-754 126.5,-775 181.5,-775 181.5,-754 126.5,-754"/>
<text text-anchor="start" x="131.5" y="-762.3" font-family="Arial" font-size="9.00" fill="#333333">STR</text>
<polygon fill="#ffffff" stroke="transparent" points="181.5,-754 181.5,-775 273.5,-775 273.5,-754 181.5,-754"/>
<polygon fill="none" stroke="#6c757d" points="181.5,-754 181.5,-775 273.5,-775 273.5,-754 181.5,-754"/>
<text text-anchor="start" x="186.5" y="-762.3" font-family="Arial" font-size="9.00" fill="#333333">&#45;&#45;&#45;</text>
<polygon fill="#ffffff" stroke="transparent" points="8.5,-733 8.5,-754 82.5,-754 82.5,-733 8.5,-733"/>
<polyline fill="none" stroke="#6c757d" points="82.5,-754 8.5,-754 8.5,-733 82.5,-733 "/>
<text text-anchor="start" x="13.5" y="-741" font-family="Arial" font-size="10.00" fill="#333333">last_post_date</text>
<polygon fill="#ffffff" stroke="transparent" points="82.5,-733 82.5,-754 126.5,-754 126.5,-733 82.5,-733"/>
<polyline fill="none" stroke="#6c757d" points="82.5,-733 126.5,-733 "/>
<polyline fill="none" stroke="#6c757d" points="126.5,-754 82.5,-754 "/>
<text text-anchor="start" x="118.5" y="-741.3" font-family="Arial" font-size="9.00" fill="#333333"> </text>
<polygon fill="#ffffff" stroke="transparent" points="126.5,-733 126.5,-754 181.5,-754 181.5,-733 126.5,-733"/>
<polygon fill="none" stroke="#6c757d" points="126.5,-733 126.5,-754 181.5,-754 181.5,-733 126.5,-733"/>
<text text-anchor="start" x="131.5" y="-741.3" font-family="Arial" font-size="9.00" fill="#333333">DATETIME</text>
<polygon fill="#ffffff" stroke="transparent" points="181.5,-733 181.5,-754 273.5,-754 273.5,-733 181.5,-733"/>
<polygon fill="none" stroke="#6c757d" points="181.5,-733 181.5,-754 273.5,-754 273.5,-733 181.5,-733"/>
<text text-anchor="start" x="186.5" y="-741.3" font-family="Arial" font-size="9.00" fill="#333333">&#45;&#45;&#45;</text>
</g>
<!-- post -->
<g id="node2" class="node">
<title>post</title>
<polygon fill="#ffffff" stroke="transparent" points="280.5,-557 0.5,-557 0.5,-330 280.5,-330 280.5,-557"/>
<polygon fill="#2e3b4e" stroke="transparent" points="8.5,-529.5 8.5,-552.5 272.5,-552.5 272.5,-529.5 8.5,-529.5"/>
<polygon fill="none" stroke="#6c757d" points="8.5,-529.5 8.5,-552.5 272.5,-552.5 272.5,-529.5 8.5,-529.5"/>
<text text-anchor="start" x="120" y="-537.9" font-family="Arial" font-size="12.00" fill="white">📋 post</text>
<polygon fill="#e9ecef" stroke="transparent" points="8.5,-509.5 8.5,-529.5 272.5,-529.5 272.5,-509.5 8.5,-509.5"/>
<polygon fill="none" stroke="#6c757d" points="8.5,-509.5 8.5,-529.5 272.5,-529.5 272.5,-509.5 8.5,-509.5"/>
<text text-anchor="start" x="13.5" y="-517.3" font-family="Arial" font-size="9.00" fill="#333333">Tabla que almacena los posts de los usuarios</text>
<polygon fill="#fff3cd" stroke="transparent" points="8.5,-488.5 8.5,-509.5 75.5,-509.5 75.5,-488.5 8.5,-488.5"/>
<polyline fill="none" stroke="#6c757d" points="75.5,-509.5 8.5,-509.5 8.5,-488.5 75.5,-488.5 "/>
<text text-anchor="start" x="13.5" y="-496.5" font-family="Arial" font-size="10.00" fill="#333333">id</text>
<polygon fill="#fff3cd" stroke="transparent" points="75.5,-488.5 75.5,-509.5 119.5,-509.5 119.5,-488.5 75.5,-488.5"/>
<polyline fill="none" stroke="#6c757d" points="75.5,-488.5 119.5,-488.5 "/>
<polyline fill="none" stroke="#6c757d" points="119.5,-509.5 75.5,-509.5 "/>
<text text-anchor="start" x="80.5" y="-496.8" font-family="Arial" font-size="9.00" fill="#333333">🔑❗⬆️</text>
<polygon fill="#fff3cd" stroke="transparent" points="119.5,-488.5 119.5,-509.5 174.5,-509.5 174.5,-488.5 119.5,-488.5"/>
<polygon fill="none" stroke="#6c757d" points="119.5,-488.5 119.5,-509.5 174.5,-509.5 174.5,-488.5 119.5,-488.5"/>
<text text-anchor="start" x="124.5" y="-496.8" font-family="Arial" font-size="9.00" fill="#333333">BIGINT</text>
<polygon fill="#fff3cd" stroke="transparent" points="174.5,-488.5 174.5,-509.5 272.5,-509.5 272.5,-488.5 174.5,-488.5"/>
<polygon fill="none" stroke="#6c757d" points="174.5,-488.5 174.5,-509.5 272.5,-509.5 272.5,-488.5 174.5,-488.5"/>
<text text-anchor="start" x="179.5" y="-496.8" font-family="Arial" font-size="9.00" fill="#333333">&#45;&#45;&#45;</text>
<polygon fill="#ffffff" stroke="transparent" points="8.5,-467.5 8.5,-488.5 75.5,-488.5 75.5,-467.5 8.5,-467.5"/>
<polyline fill="none" stroke="#6c757d" points="75.5,-488.5 8.5,-488.5 8.5,-467.5 75.5,-467.5 "/>
<text text-anchor="start" x="13.5" y="-475.5" font-family="Arial" font-size="10.00" fill="#333333">title</text>
<polygon fill="#ffffff" stroke="transparent" points="75.5,-467.5 75.5,-488.5 119.5,-488.5 119.5,-467.5 75.5,-467.5"/>
<polyline fill="none" stroke="#6c757d" points="75.5,-467.5 119.5,-467.5 "/>
<polyline fill="none" stroke="#6c757d" points="119.5,-488.5 75.5,-488.5 "/>
<text text-anchor="start" x="102.5" y="-475.8" font-family="Arial" font-size="9.00" fill="#333333">❗</text>
<polygon fill="#ffffff" stroke="transparent" points="119.5,-467.5 119.5,-488.5 174.5,-488.5 174.5,-467.5 119.5,-467.5"/>
<polygon fill="none" stroke="#6c757d" points="119.5,-467.5 119.5,-488.5 174.5,-488.5 174.5,-467.5 119.5,-467.5"/>
<text text-anchor="start" x="124.5" y="-475.8" font-family="Arial" font-size="9.00" fill="#333333">STR</text>
<polygon fill="#ffffff" stroke="transparent" points="174.5,-467.5 174.5,-488.5 272.5,-488.5 272.5,-467.5 174.5,-467.5"/>
<polygon fill="none" stroke="#6c757d" points="174.5,-467.5 174.5,-488.5 272.5,-488.5 272.5,-467.5 174.5,-467.5"/>
<text text-anchor="start" x="179.5" y="-475.8" font-family="Arial" font-size="9.00" fill="#333333">&#45;&#45;&#45;</text>
<polygon fill="#ffffff" stroke="transparent" points="8.5,-446.5 8.5,-467.5 75.5,-467.5 75.5,-446.5 8.5,-446.5"/>
<polyline fill="none" stroke="#6c757d" points="75.5,-467.5 8.5,-467.5 8.5,-446.5 75.5,-446.5 "/>
<text text-anchor="start" x="13.5" y="-454.5" font-family="Arial" font-size="10.00" fill="#333333">content</text>
<polygon fill="#ffffff" stroke="transparent" points="75.5,-446.5 75.5,-467.5 119.5,-467.5 119.5,-446.5 75.5,-446.5"/>
<polyline fill="none" stroke="#6c757d" points="75.5,-446.5 119.5,-446.5 "/>
<polyline fill="none" stroke="#6c757d" points="119.5,-467.5 75.5,-467.5 "/>
<text text-anchor="start" x="102.5" y="-454.8" font-family="Arial" font-size="9.00" fill="#333333">❗</text>
<polygon fill="#ffffff" stroke="transparent" points="119.5,-446.5 119.5,-467.5 174.5,-467.5 174.5,-446.5 119.5,-446.5"/>
<polygon fill="none" stroke="#6c757d" points="119.5,-446.5 119.5,-467.5 174.5,-467.5 174.5,-446.5 119.5,-446.5"/>
<text text-anchor="start" x="124.5" y="-454.8" font-family="Arial" font-size="9.00" fill="#333333">STR</text>
<polygon fill="#ffffff" stroke="transparent" points="174.5,-446.5 174.5,-467.5 272.5,-467.5 272.5,-446.5 174.5,-446.5"/>
<polygon fill="none" stroke="#6c757d" points="174.5,-446.5 174.5,-467.5 272.5,-467.5 272.5,-446.5 174.5,-446.5"/>
<text text-anchor="start" x="179.5" y="-454.8" font-family="Arial" font-size="9.00" fill="#333333">Contenido del post</text>
<polygon fill="#ffffff" stroke="transparent" points="8.5,-425.5 8.5,-446.5 75.5,-446.5 75.5,-425.5 8.5,-425.5"/>
<polyline fill="none" stroke="#6c757d" points="75.5,-446.5 8.5,-446.5 8.5,-425.5 75.5,-425.5 "/>
<text text-anchor="start" x="13.5" y="-433.5" font-family="Arial" font-size="10.00" fill="#333333">content_type</text>
<polygon fill="#ffffff" stroke="transparent" points="75.5,-425.5 75.5,-446.5 119.5,-446.5 119.5,-425.5 75.5,-425.5"/>
<polyline fill="none" stroke="#6c757d" points="75.5,-425.5 119.5,-425.5 "/>
<polyline fill="none" stroke="#6c757d" points="119.5,-446.5 75.5,-446.5 "/>
<text text-anchor="start" x="102.5" y="-433.8" font-family="Arial" font-size="9.00" fill="#333333">❗</text>
<polygon fill="#ffffff" stroke="transparent" points="119.5,-425.5 119.5,-446.5 174.5,-446.5 174.5,-425.5 119.5,-425.5"/>
<polygon fill="none" stroke="#6c757d" points="119.5,-425.5 119.5,-446.5 174.5,-446.5 174.5,-425.5 119.5,-425.5"/>
<text text-anchor="start" x="124.5" y="-433.8" font-family="Arial" font-size="9.00" fill="#333333">STR</text>
<polygon fill="#ffffff" stroke="transparent" points="174.5,-425.5 174.5,-446.5 272.5,-446.5 272.5,-425.5 174.5,-425.5"/>
<polygon fill="none" stroke="#6c757d" points="174.5,-425.5 174.5,-446.5 272.5,-446.5 272.5,-425.5 174.5,-425.5"/>
<text text-anchor="start" x="179.5" y="-433.8" font-family="Arial" font-size="9.00" fill="#333333">&#45;&#45;&#45;</text>
<polygon fill="#ffffff" stroke="transparent" points="8.5,-404.5 8.5,-425.5 75.5,-425.5 75.5,-404.5 8.5,-404.5"/>
<polyline fill="none" stroke="#6c757d" points="75.5,-425.5 8.5,-425.5 8.5,-404.5 75.5,-404.5 "/>
<text text-anchor="start" x="13.5" y="-412.5" font-family="Arial" font-size="10.00" fill="#333333">timestamp</text>
<polygon fill="#ffffff" stroke="transparent" points="75.5,-404.5 75.5,-425.5 119.5,-425.5 119.5,-404.5 75.5,-404.5"/>
<polyline fill="none" stroke="#6c757d" points="75.5,-404.5 119.5,-404.5 "/>
<polyline fill="none" stroke="#6c757d" points="119.5,-425.5 75.5,-425.5 "/>
<text text-anchor="start" x="102.5" y="-412.8" font-family="Arial" font-size="9.00" fill="#333333">❗</text>
<polygon fill="#ffffff" stroke="transparent" points="119.5,-404.5 119.5,-425.5 174.5,-425.5 174.5,-404.5 119.5,-404.5"/>
<polygon fill="none" stroke="#6c757d" points="119.5,-404.5 119.5,-425.5 174.5,-425.5 174.5,-404.5 119.5,-404.5"/>
<text text-anchor="start" x="124.5" y="-412.8" font-family="Arial" font-size="9.00" fill="#333333">DATETIME</text>
<polygon fill="#ffffff" stroke="transparent" points="174.5,-404.5 174.5,-425.5 272.5,-425.5 272.5,-404.5 174.5,-404.5"/>
<polygon fill="none" stroke="#6c757d" points="174.5,-404.5 174.5,-425.5 272.5,-425.5 272.5,-404.5 174.5,-404.5"/>
<text text-anchor="start" x="179.5" y="-412.8" font-family="Arial" font-size="9.00" fill="#333333">Fecha y hora del post</text>
<polygon fill="#d1ecf1" stroke="transparent" points="8.5,-383.5 8.5,-404.5 75.5,-404.5 75.5,-383.5 8.5,-383.5"/>
<polyline fill="none" stroke="#6c757d" points="75.5,-404.5 8.5,-404.5 8.5,-383.5 75.5,-383.5 "/>
<text text-anchor="start" x="13.5" y="-391.5" font-family="Arial" font-size="10.00" fill="#333333">author_id</text>
<polygon fill="#d1ecf1" stroke="transparent" points="75.5,-383.5 75.5,-404.5 119.5,-404.5 119.5,-383.5 75.5,-383.5"/>
<polyline fill="none" stroke="#6c757d" points="75.5,-383.5 119.5,-383.5 "/>
<polyline fill="none" stroke="#6c757d" points="119.5,-404.5 75.5,-404.5 "/>
<text text-anchor="start" x="91.5" y="-391.8" font-family="Arial" font-size="9.00" fill="#333333">🔗❗</text>
<polygon fill="#d1ecf1" stroke="transparent" points="119.5,-383.5 119.5,-404.5 174.5,-404.5 174.5,-383.5 119.5,-383.5"/>
<polygon fill="none" stroke="#6c757d" points="119.5,-383.5 119.5,-404.5 174.5,-404.5 174.5,-383.5 119.5,-383.5"/>
<text text-anchor="start" x="124.5" y="-391.8" font-family="Arial" font-size="9.00" fill="#333333">INT</text>
<polygon fill="#d1ecf1" stroke="transparent" points="174.5,-383.5 174.5,-404.5 272.5,-404.5 272.5,-383.5 174.5,-383.5"/>
<polygon fill="none" stroke="#6c757d" points="174.5,-383.5 174.5,-404.5 272.5,-404.5 272.5,-383.5 174.5,-383.5"/>
<text text-anchor="start" x="179.5" y="-391.8" font-family="Arial" font-size="9.00" fill="#333333">&#45;&#45;&#45;</text>
<polygon fill="#ffffff" stroke="transparent" points="8.5,-363.5 8.5,-383.5 272.5,-383.5 272.5,-363.5 8.5,-363.5"/>
<polygon fill="none" stroke="#6c757d" points="8.5,-363.5 8.5,-383.5 272.5,-383.5 272.5,-363.5 8.5,-363.5"/>
<text text-anchor="start" x="13.5" y="-371.3" font-family="Arial" font-size="9.00" fill="#27ae60">➕ ON CREATE (after)</text>
<polygon fill="#f5eef8" stroke="transparent" points="8.5,-333.5 8.5,-363.5 272.5,-363.5 272.5,-333.5 8.5,-333.5"/>
<polygon fill="none" stroke="#6c757d" points="8.5,-333.5 8.5,-363.5 272.5,-363.5 272.5,-333.5 8.5,-333.5"/>
<text text-anchor="start" x="13.5" y="-351.3" font-family="Arial" font-size="9.00" fill="#333333">Trigger que actualiza el campo last_post_date del usuario al</text>
<text text-anchor="start" x="13.5" y="-341.3" font-family="Arial" font-size="9.00" fill="#333333">crear un nuevo post</text>
</g>
<!-- waypoint_usuario_post -->
<!-- post&#45;&gt;waypoint_usuario_post -->
<g id="edge2" class="edge">
<title>post&#45;&gt;waypoint_usuario_post</title>
<path fill="none" stroke="#495057" stroke-width="1.5" d="M140.5,-567.24C140.5,-567.24 140.5,-642.88 140.5,-642.88"/>
<polygon fill="#495057" stroke="#495057" stroke-width="1.5" points="140.5,-567.24 145,-557.24 140.5,-562.24 140.5,-557.24 140.5,-557.24 140.5,-557.24 140.5,-562.24 136,-557.24 140.5,-567.24 140.5,-567.24"/>
<text text-anchor="middle" x="119" y="-597.06" font-family="Arial" font-size="10.00" fill="#333333">🔼 author</text>
</g>
<!-- comment -->
<g id="node3" class="node">
<title>comment</title>
<polygon fill="#ffffff" stroke="transparent" points="270,-136 11,-136 11,-22 270,-22 270,-136"/>
<polygon fill="#2e3b4e" stroke="transparent" points="19.5,-109 19.5,-132 262.5,-132 262.5,-109 19.5,-109"/>
<polygon fill="none" stroke="#6c757d" points="19.5,-109 19.5,-132 262.5,-132 262.5,-109 19.5,-109"/>
<text text-anchor="start" x="107.5" y="-117.4" font-family="Arial" font-size="12.00" fill="white">📋 comment</text>
<polygon fill="#e9ecef" stroke="transparent" points="19.5,-89 19.5,-109 262.5,-109 262.5,-89 19.5,-89"/>
<polygon fill="none" stroke="#6c757d" points="19.5,-89 19.5,-109 262.5,-109 262.5,-89 19.5,-89"/>
<text text-anchor="start" x="24.5" y="-96.8" font-family="Arial" font-size="9.00" fill="#333333">Tabla que almacena los comentarios de los posts</text>
<polygon fill="#fff3cd" stroke="transparent" points="19.5,-68 19.5,-89 62.5,-89 62.5,-68 19.5,-68"/>
<polyline fill="none" stroke="#6c757d" points="62.5,-89 19.5,-89 19.5,-68 62.5,-68 "/>
<text text-anchor="start" x="24.5" y="-76" font-family="Arial" font-size="10.00" fill="#333333">id</text>
<polygon fill="#fff3cd" stroke="transparent" points="62.5,-68 62.5,-89 106.5,-89 106.5,-68 62.5,-68"/>
<polyline fill="none" stroke="#6c757d" points="62.5,-68 106.5,-68 "/>
<polyline fill="none" stroke="#6c757d" points="106.5,-89 62.5,-89 "/>
<text text-anchor="start" x="67.5" y="-76.3" font-family="Arial" font-size="9.00" fill="#333333">🔑❗⬆️</text>
<polygon fill="#fff3cd" stroke="transparent" points="106.5,-68 106.5,-89 146.5,-89 146.5,-68 106.5,-68"/>
<polygon fill="none" stroke="#6c757d" points="106.5,-68 106.5,-89 146.5,-89 146.5,-68 106.5,-68"/>
<text text-anchor="start" x="111.5" y="-76.3" font-family="Arial" font-size="9.00" fill="#333333">INT</text>
<polygon fill="#fff3cd" stroke="transparent" points="146.5,-68 146.5,-89 262.5,-89 262.5,-68 146.5,-68"/>
<polygon fill="none" stroke="#6c757d" points="146.5,-68 146.5,-89 262.5,-89 262.5,-68 146.5,-68"/>
<text text-anchor="start" x="151.5" y="-76.3" font-family="Arial" font-size="9.00" fill="#333333">&#45;&#45;&#45;</text>
<polygon fill="#ffffff" stroke="transparent" points="19.5,-47 19.5,-68 62.5,-68 62.5,-47 19.5,-47"/>
<polyline fill="none" stroke="#6c757d" points="62.5,-68 19.5,-68 19.5,-47 62.5,-47 "/>
<text text-anchor="start" x="24.5" y="-55" font-family="Arial" font-size="10.00" fill="#333333">content</text>
<polygon fill="#ffffff" stroke="transparent" points="62.5,-47 62.5,-68 106.5,-68 106.5,-47 62.5,-47"/>
<polyline fill="none" stroke="#6c757d" points="62.5,-47 106.5,-47 "/>
<polyline fill="none" stroke="#6c757d" points="106.5,-68 62.5,-68 "/>
<text text-anchor="start" x="89.5" y="-55.3" font-family="Arial" font-size="9.00" fill="#333333">❗</text>
<polygon fill="#ffffff" stroke="transparent" points="106.5,-47 106.5,-68 146.5,-68 146.5,-47 106.5,-47"/>
<polygon fill="none" stroke="#6c757d" points="106.5,-47 106.5,-68 146.5,-68 146.5,-47 106.5,-47"/>
<text text-anchor="start" x="111.5" y="-55.3" font-family="Arial" font-size="9.00" fill="#333333">STR</text>
<polygon fill="#ffffff" stroke="transparent" points="146.5,-47 146.5,-68 262.5,-68 262.5,-47 146.5,-47"/>
<polygon fill="none" stroke="#6c757d" points="146.5,-47 146.5,-68 262.5,-68 262.5,-47 146.5,-47"/>
<text text-anchor="start" x="151.5" y="-55.3" font-family="Arial" font-size="9.00" fill="#333333">Contenido del comentario</text>
<polygon fill="#d1ecf1" stroke="transparent" points="19.5,-26 19.5,-47 62.5,-47 62.5,-26 19.5,-26"/>
<polyline fill="none" stroke="#6c757d" points="62.5,-47 19.5,-47 19.5,-26 62.5,-26 "/>
<text text-anchor="start" x="24.5" y="-34" font-family="Arial" font-size="10.00" fill="#333333">post_id</text>
<polygon fill="#d1ecf1" stroke="transparent" points="62.5,-26 62.5,-47 106.5,-47 106.5,-26 62.5,-26"/>
<polyline fill="none" stroke="#6c757d" points="62.5,-26 106.5,-26 "/>
<polyline fill="none" stroke="#6c757d" points="106.5,-47 62.5,-47 "/>
<text text-anchor="start" x="78.5" y="-34.3" font-family="Arial" font-size="9.00" fill="#333333">🔗❗</text>
<polygon fill="#d1ecf1" stroke="transparent" points="106.5,-26 106.5,-47 146.5,-47 146.5,-26 106.5,-26"/>
<polygon fill="none" stroke="#6c757d" points="106.5,-26 106.5,-47 146.5,-47 146.5,-26 106.5,-26"/>
<text text-anchor="start" x="111.5" y="-34.3" font-family="Arial" font-size="9.00" fill="#333333">BIGINT</text>
<polygon fill="#d1ecf1" stroke="transparent" points="146.5,-26 146.5,-47 262.5,-47 262.5,-26 146.5,-26"/>
<polygon fill="none" stroke="#6c757d" points="146.5,-26 146.5,-47 262.5,-47 262.5,-26 146.5,-26"/>
<text text-anchor="start" x="151.5" y="-34.3" font-family="Arial" font-size="9.00" fill="#333333">&#45;&#45;&#45;</text>
</g>
<!-- waypoint_post_comment -->
<!-- comment&#45;&gt;waypoint_post_comment -->
<g id="edge4" class="edge">
<title>comment&#45;&gt;waypoint_post_comment</title>
<path fill="none" stroke="#495057" stroke-width="1.5" d="M140.5,-146.25C140.5,-146.25 140.5,-243.96 140.5,-243.96"/>
<polygon fill="#495057" stroke="#495057" stroke-width="1.5" points="140.5,-146.25 145,-136.25 140.5,-141.25 140.5,-136.25 140.5,-136.25 140.5,-136.25 140.5,-141.25 136,-136.25 140.5,-146.25 140.5,-146.25"/>
<text text-anchor="middle" x="123" y="-187.1" font-family="Arial" font-size="10.00" fill="#333333">🔼 post</text>
</g>
<!-- user_stats -->
<g id="node4" class="node">
<title>user_stats</title>
<path fill="#f8f9fa" stroke="transparent" d="M564.5,-136C564.5,-136 340.5,-136 340.5,-136 334.5,-136 328.5,-130 328.5,-124 328.5,-124 328.5,-34 328.5,-34 328.5,-28 334.5,-22 340.5,-22 340.5,-22 564.5,-22 564.5,-22 570.5,-22 576.5,-28 576.5,-34 576.5,-34 576.5,-124 576.5,-124 576.5,-130 570.5,-136 564.5,-136"/>
<polygon fill="#2e4e6e" stroke="transparent" points="336.5,-109 336.5,-132 568.5,-132 568.5,-109 336.5,-109"/>
<polygon fill="none" stroke="#6c757d" points="336.5,-109 336.5,-132 568.5,-132 568.5,-109 336.5,-109"/>
<text text-anchor="start" x="416" y="-117.4" font-family="Arial" font-size="12.00" fill="white">👁️ user_stats</text>
<polygon fill="#e9ecef" stroke="transparent" points="336.5,-89 336.5,-109 568.5,-109 568.5,-89 336.5,-89"/>
<polygon fill="none" stroke="#6c757d" points="336.5,-89 336.5,-109 568.5,-109 568.5,-89 336.5,-89"/>
<text text-anchor="start" x="341.5" y="-96.8" font-family="Arial" font-size="9.00" fill="#333333">Vista que muestra estadísticas de usuarios y sus posts</text>
<polygon fill="#ffffff" stroke="transparent" points="336.5,-68 336.5,-89 467.5,-89 467.5,-68 336.5,-68"/>
<polyline fill="none" stroke="#6c757d" points="467.5,-89 336.5,-89 336.5,-68 467.5,-68 "/>
<text text-anchor="start" x="341.5" y="-76" font-family="Arial" font-size="10.00" fill="#333333">user_id</text>
<polygon fill="#ffffff" stroke="transparent" points="467.5,-68 467.5,-89 568.5,-89 568.5,-68 467.5,-68"/>
<polygon fill="none" stroke="#6c757d" points="467.5,-68 467.5,-89 568.5,-89 568.5,-68 467.5,-68"/>
<text text-anchor="start" x="472.5" y="-76.3" font-family="Arial" font-size="9.00" fill="#333333">INT</text>
<polygon fill="#ffffff" stroke="transparent" points="336.5,-47 336.5,-68 467.5,-68 467.5,-47 336.5,-47"/>
<polyline fill="none" stroke="#6c757d" points="467.5,-68 336.5,-68 336.5,-47 467.5,-47 "/>
<text text-anchor="start" x="341.5" y="-55" font-family="Arial" font-size="10.00" fill="#333333">user_name</text>
<polygon fill="#ffffff" stroke="transparent" points="467.5,-47 467.5,-68 568.5,-68 568.5,-47 467.5,-47"/>
<polygon fill="none" stroke="#6c757d" points="467.5,-47 467.5,-68 568.5,-68 568.5,-47 467.5,-47"/>
<text text-anchor="start" x="472.5" y="-55.3" font-family="Arial" font-size="9.00" fill="#333333">STR</text>
<polygon fill="#ffffff" stroke="transparent" points="336.5,-26 336.5,-47 467.5,-47 467.5,-26 336.5,-26"/>
<polyline fill="none" stroke="#6c757d" points="467.5,-47 336.5,-47 336.5,-26 467.5,-26 "/>
<text text-anchor="start" x="341.5" y="-34" font-family="Arial" font-size="10.00" fill="#333333">post_count</text>
<polygon fill="#ffffff" stroke="transparent" points="467.5,-26 467.5,-47 568.5,-47 568.5,-26 467.5,-26"/>
<polygon fill="none" stroke="#6c757d" points="467.5,-26 467.5,-47 568.5,-47 568.5,-26 467.5,-26"/>
<text text-anchor="start" x="472.5" y="-34.3" font-family="Arial" font-size="9.00" fill="#333333">INT</text>
</g>
<!-- waypoint_usuario_post&#45;&gt;usuario -->
<g id="edge1" class="edge">
<title>waypoint_usuario_post&#45;&gt;usuario</title>
<path fill="none" stroke="#495057" stroke-width="1.5" d="M140.5,-643.12C140.5,-643.12 140.5,-720.81 140.5,-720.81"/>
<ellipse fill="#495057" stroke="#495057" stroke-width="1.5" cx="140.5" cy="-724.81" rx="4" ry="4"/>
<text text-anchor="middle" x="120.5" y="-673.97" font-family="Arial" font-size="10.00" fill="#333333">🔽 posts</text>
</g>
<!-- waypoint_post_comment&#45;&gt;post -->
<g id="edge3" class="edge">
<title>waypoint_post_comment&#45;&gt;post</title>
<path fill="none" stroke="#495057" stroke-width="1.5" d="M140.5,-244.14C140.5,-244.14 140.5,-321.73 140.5,-321.73"/>
<ellipse fill="#495057" stroke="#495057" stroke-width="1.5" cx="140.5" cy="-325.73" rx="4" ry="4"/>
<text text-anchor="middle" x="109.5" y="-274.94" font-family="Arial" font-size="10.00" fill="#333333">🔽 comments</text>
</g>
<!-- legend -->
<g id="node7" class="node">
<title>legend</title>
<polygon fill="#fafafa" stroke="transparent" points="750,-158 635,-158 635,0 750,0 750,-158"/>
<text text-anchor="start" x="645.5" y="-144" font-family="Arial" font-size="10.00">🔑</text>
<text text-anchor="start" x="662.5" y="-144" font-family="Arial" font-size="10.00">Primary key</text>
<text text-anchor="start" x="645.5" y="-129" font-family="Arial" font-size="10.00">🔗</text>
<text text-anchor="start" x="662.5" y="-129" font-family="Arial" font-size="10.00">Foreign key</text>
<text text-anchor="start" x="645.5" y="-114" font-family="Arial" font-size="10.00">⭐</text>
<text text-anchor="start" x="662.5" y="-114" font-family="Arial" font-size="10.00">Unique</text>
<text text-anchor="start" x="645.5" y="-99" font-family="Arial" font-size="10.00">❗</text>
<text text-anchor="start" x="662.5" y="-99" font-family="Arial" font-size="10.00">Not null</text>
<text text-anchor="start" x="645.5" y="-84" font-family="Arial" font-size="10.00">⬆️</text>
<text text-anchor="start" x="662.5" y="-84" font-family="Arial" font-size="10.00">Autoincrement</text>
<text text-anchor="start" x="645.5" y="-69" font-family="Arial" font-size="10.00">🔒</text>
<text text-anchor="start" x="662.5" y="-69" font-family="Arial" font-size="10.00">Encrypted</text>
<text text-anchor="start" x="645.5" y="-54" font-family="Arial" font-size="10.00">🧮</text>
<text text-anchor="start" x="662.5" y="-54" font-family="Arial" font-size="10.00">Calculated</text>
<text text-anchor="start" x="645.5" y="-39" font-family="Arial" font-size="10.00">➕</text>
<text text-anchor="start" x="662.5" y="-39" font-family="Arial" font-size="10.00">On Create trigger</text>
<text text-anchor="start" x="645.5" y="-24" font-family="Arial" font-size="10.00">✏️</text>
<text text-anchor="start" x="662.5" y="-24" font-family="Arial" font-size="10.00">On Update trigger</text>
<text text-anchor="start" x="645.5" y="-9" font-family="Arial" font-size="10.00">🗑️</text>
<text text-anchor="start" x="662.5" y="-9" font-family="Arial" font-size="10.00">On Delete trigger</text>
</g>
</g>
</svg>
